<mxfile host="app.diagrams.net" modified="2024-10-22T11:38:56.405Z" agent="Mozilla/5.0 (Windows NT 10.0; Win64; x64) AppleWebKit/537.36 (KHTML, like Gecko) Chrome/127.0.0.0 Safari/537.36 OPR/113.0.0.0" etag="PmMGt4OTt-ekC82aPxas" version="24.4.4" type="github">
  <diagram name="Страница — 1" id="10z4Rp_QNYZS6uBOhgoi">
    <mxGraphModel dx="1009" dy="586" grid="1" gridSize="10" guides="1" tooltips="1" connect="1" arrows="1" fold="1" page="1" pageScale="1" pageWidth="827" pageHeight="1169" math="0" shadow="0">
      <root>
        <mxCell id="0" />
        <mxCell id="1" parent="0" />
        <mxCell id="4CwqNNEqWvBx9ExwC8Ai-10" style="edgeStyle=orthogonalEdgeStyle;rounded=0;orthogonalLoop=1;jettySize=auto;html=1;entryX=0.5;entryY=1;entryDx=0;entryDy=0;startArrow=classic;startFill=1;" edge="1" parent="1" source="4CwqNNEqWvBx9ExwC8Ai-1" target="4CwqNNEqWvBx9ExwC8Ai-7">
          <mxGeometry relative="1" as="geometry" />
        </mxCell>
        <mxCell id="4CwqNNEqWvBx9ExwC8Ai-11" style="edgeStyle=orthogonalEdgeStyle;rounded=0;orthogonalLoop=1;jettySize=auto;html=1;entryX=1;entryY=0.5;entryDx=0;entryDy=0;startArrow=classic;startFill=1;" edge="1" parent="1" source="4CwqNNEqWvBx9ExwC8Ai-1" target="4CwqNNEqWvBx9ExwC8Ai-6">
          <mxGeometry relative="1" as="geometry" />
        </mxCell>
        <mxCell id="4CwqNNEqWvBx9ExwC8Ai-15" style="edgeStyle=orthogonalEdgeStyle;rounded=0;orthogonalLoop=1;jettySize=auto;html=1;entryX=0.5;entryY=0;entryDx=0;entryDy=0;startArrow=classic;startFill=1;" edge="1" parent="1" source="4CwqNNEqWvBx9ExwC8Ai-1" target="4CwqNNEqWvBx9ExwC8Ai-2">
          <mxGeometry relative="1" as="geometry" />
        </mxCell>
        <mxCell id="4CwqNNEqWvBx9ExwC8Ai-1" value="Главная страница" style="rounded=0;whiteSpace=wrap;html=1;" vertex="1" parent="1">
          <mxGeometry x="300" y="260" width="120" height="60" as="geometry" />
        </mxCell>
        <mxCell id="4CwqNNEqWvBx9ExwC8Ai-2" value="Страница о нас" style="rounded=0;whiteSpace=wrap;html=1;" vertex="1" parent="1">
          <mxGeometry x="300" y="460" width="120" height="60" as="geometry" />
        </mxCell>
        <mxCell id="4CwqNNEqWvBx9ExwC8Ai-16" style="edgeStyle=orthogonalEdgeStyle;rounded=0;orthogonalLoop=1;jettySize=auto;html=1;entryX=0;entryY=1;entryDx=0;entryDy=0;startArrow=classic;startFill=1;" edge="1" parent="1" source="4CwqNNEqWvBx9ExwC8Ai-6" target="4CwqNNEqWvBx9ExwC8Ai-7">
          <mxGeometry relative="1" as="geometry">
            <Array as="points">
              <mxPoint x="110" y="120" />
            </Array>
          </mxGeometry>
        </mxCell>
        <mxCell id="4CwqNNEqWvBx9ExwC8Ai-17" style="edgeStyle=orthogonalEdgeStyle;rounded=0;orthogonalLoop=1;jettySize=auto;html=1;entryX=0;entryY=0;entryDx=0;entryDy=0;startArrow=classic;startFill=1;" edge="1" parent="1" source="4CwqNNEqWvBx9ExwC8Ai-6" target="4CwqNNEqWvBx9ExwC8Ai-2">
          <mxGeometry relative="1" as="geometry">
            <Array as="points">
              <mxPoint x="110" y="460" />
            </Array>
          </mxGeometry>
        </mxCell>
        <mxCell id="4CwqNNEqWvBx9ExwC8Ai-6" value="Страница для корпоративных клиентов" style="rounded=0;whiteSpace=wrap;html=1;" vertex="1" parent="1">
          <mxGeometry x="50" y="260" width="120" height="60" as="geometry" />
        </mxCell>
        <mxCell id="4CwqNNEqWvBx9ExwC8Ai-13" style="edgeStyle=orthogonalEdgeStyle;rounded=0;orthogonalLoop=1;jettySize=auto;html=1;entryX=0;entryY=0.5;entryDx=0;entryDy=0;startArrow=classic;startFill=1;" edge="1" parent="1" source="4CwqNNEqWvBx9ExwC8Ai-7" target="4CwqNNEqWvBx9ExwC8Ai-2">
          <mxGeometry relative="1" as="geometry">
            <Array as="points">
              <mxPoint x="30" y="90" />
              <mxPoint x="30" y="490" />
            </Array>
          </mxGeometry>
        </mxCell>
        <mxCell id="4CwqNNEqWvBx9ExwC8Ai-7" value="Каталог пирожных" style="rounded=0;whiteSpace=wrap;html=1;" vertex="1" parent="1">
          <mxGeometry x="300" y="60" width="120" height="60" as="geometry" />
        </mxCell>
        <mxCell id="4CwqNNEqWvBx9ExwC8Ai-9" style="edgeStyle=orthogonalEdgeStyle;rounded=0;orthogonalLoop=1;jettySize=auto;html=1;entryX=1;entryY=0.5;entryDx=0;entryDy=0;" edge="1" parent="1" source="4CwqNNEqWvBx9ExwC8Ai-8" target="4CwqNNEqWvBx9ExwC8Ai-1">
          <mxGeometry relative="1" as="geometry" />
        </mxCell>
        <mxCell id="4CwqNNEqWvBx9ExwC8Ai-8" value="Пользователь" style="text;html=1;align=center;verticalAlign=middle;whiteSpace=wrap;rounded=0;" vertex="1" parent="1">
          <mxGeometry x="580" y="275" width="90" height="30" as="geometry" />
        </mxCell>
      </root>
    </mxGraphModel>
  </diagram>
</mxfile>
